<svg width="237" height="47" viewBox="0 0 237 47" fill="none" xmlns="http://www.w3.org/2000/svg">
<path d="M1.0625 44.2812V34.2812C2.875 35.8021 4.84375 36.9479 6.96875 37.7188C9.09375 38.4688 11.2396 38.8438 13.4062 38.8438C14.6771 38.8438 15.7812 38.7292 16.7188 38.5C17.6771 38.2708 18.4688 37.9583 19.0938 37.5625C19.7396 37.1458 20.2188 36.6667 20.5312 36.125C20.8438 35.5625 21 34.9583 21 34.3125C21 33.4375 20.75 32.6562 20.25 31.9688C19.75 31.2812 19.0625 30.6458 18.1875 30.0625C17.3333 29.4792 16.3125 28.9167 15.125 28.375C13.9375 27.8333 12.6562 27.2812 11.2812 26.7188C7.78125 25.2604 5.16667 23.4792 3.4375 21.375C1.72917 19.2708 0.875 16.7292 0.875 13.75C0.875 11.4167 1.34375 9.41667 2.28125 7.75C3.21875 6.0625 4.48958 4.67708 6.09375 3.59375C7.71875 2.51042 9.59375 1.71875 11.7188 1.21875C13.8438 0.697917 16.0938 0.4375 18.4688 0.4375C20.8021 0.4375 22.8646 0.583333 24.6562 0.875C26.4688 1.14583 28.1354 1.57292 29.6562 2.15625V11.5C28.9062 10.9792 28.0833 10.5208 27.1875 10.125C26.3125 9.72917 25.4062 9.40625 24.4688 9.15625C23.5312 8.88542 22.5938 8.6875 21.6562 8.5625C20.7396 8.4375 19.8646 8.375 19.0312 8.375C17.8854 8.375 16.8438 8.48958 15.9062 8.71875C14.9688 8.92708 14.1771 9.22917 13.5312 9.625C12.8854 10.0208 12.3854 10.5 12.0312 11.0625C11.6771 11.6042 11.5 12.2188 11.5 12.9062C11.5 13.6562 11.6979 14.3333 12.0938 14.9375C12.4896 15.5208 13.0521 16.0833 13.7812 16.625C14.5104 17.1458 15.3958 17.6667 16.4375 18.1875C17.4792 18.6875 18.6562 19.2083 19.9688 19.75C21.7604 20.5 23.3646 21.3021 24.7812 22.1562C26.2188 22.9896 27.4479 23.9375 28.4688 25C29.4896 26.0625 30.2708 27.2812 30.8125 28.6562C31.3542 30.0104 31.625 31.5938 31.625 33.4062C31.625 35.9062 31.1458 38.0104 30.1875 39.7188C29.25 41.4062 27.9688 42.7812 26.3438 43.8438C24.7188 44.8854 22.8229 45.6354 20.6562 46.0938C18.5104 46.5521 16.2396 46.7812 13.8438 46.7812C11.3854 46.7812 9.04167 46.5729 6.8125 46.1562C4.60417 45.7396 2.6875 45.1146 1.0625 44.2812ZM47.8138 30.5625V46H37.72V1.1875H53.5325C64.8242 1.1875 70.47 5.94792 70.47 15.4688C70.47 19.9688 68.845 23.6146 65.595 26.4062C62.3658 29.1771 58.0429 30.5625 52.6263 30.5625H47.8138ZM47.8138 8.9375V22.9062H51.7825C57.1575 22.9062 59.845 20.5521 59.845 15.8438C59.845 11.2396 57.1575 8.9375 51.7825 8.9375H47.8138ZM84.0338 37.8125H103.034V46H73.2213V42.625C73.2213 40.3333 73.6067 38.2812 74.3775 36.4688C75.1483 34.6354 76.1171 33 77.2838 31.5625C78.4504 30.1042 79.7213 28.8229 81.0963 27.7188C82.4921 26.5938 83.815 25.5833 85.065 24.6875C86.3775 23.75 87.5233 22.8542 88.5025 22C89.5025 21.1458 90.3358 20.3021 91.0025 19.4688C91.69 18.6146 92.2004 17.7604 92.5338 16.9062C92.8671 16.0312 93.0338 15.1042 93.0338 14.125C93.0338 12.2083 92.4921 10.7604 91.4088 9.78125C90.3254 8.80208 88.6692 8.3125 86.44 8.3125C82.5858 8.3125 78.8983 9.84375 75.3775 12.9062V4.21875C79.2733 1.69792 83.6692 0.4375 88.565 0.4375C90.8358 0.4375 92.8671 0.739583 94.6588 1.34375C96.4713 1.92708 98.0025 2.77083 99.2525 3.875C100.503 4.97917 101.45 6.32292 102.096 7.90625C102.763 9.46875 103.096 11.2188 103.096 13.1562C103.096 15.2188 102.773 17.0521 102.128 18.6562C101.503 20.2604 100.659 21.7188 99.5963 23.0312C98.5546 24.3438 97.3463 25.5521 95.9713 26.6562C94.5963 27.7396 93.1692 28.7917 91.69 29.8125C90.69 30.5208 89.7213 31.2292 88.7838 31.9375C87.8671 32.625 87.0546 33.3125 86.3463 34C85.6379 34.6667 85.0754 35.3229 84.6588 35.9688C84.2421 36.6146 84.0338 37.2292 84.0338 37.8125Z" fill="#03BBD3"/>
<path d="M121.379 30.5625V46H111.285V1.1875H127.098C138.389 1.1875 144.035 5.94792 144.035 15.4688C144.035 19.9688 142.41 23.6146 139.16 26.4062C135.931 29.1771 131.608 30.5625 126.191 30.5625H121.379ZM121.379 8.9375V22.9062H125.348C130.723 22.9062 133.41 20.5521 133.41 15.8438C133.41 11.2396 130.723 8.9375 125.348 8.9375H121.379ZM180.786 9.40625H168.005V46H157.88V9.40625H145.161V1.1875H180.786V9.40625ZM236.6 46H226.631V19.1875C226.631 16.2917 226.756 13.0938 227.006 9.59375H226.756C226.235 12.3438 225.767 14.3229 225.35 15.5312L214.85 46H206.6L195.913 15.8438C195.621 15.0312 195.152 12.9479 194.506 9.59375H194.225C194.496 14.0104 194.631 17.8854 194.631 21.2188V46H185.538V1.1875H200.319L209.475 27.75C210.204 29.875 210.735 32.0104 211.069 34.1562H211.256C211.819 31.6771 212.413 29.5208 213.038 27.6875L222.194 1.1875H236.6V46Z" fill="white"/>
</svg>
