<?xml version="1.0" encoding="iso-8859-1"?>
<!-- Generator: Adobe Illustrator 16.0.0, SVG Export Plug-In . SVG Version: 6.00 Build 0)  -->
<!DOCTYPE svg PUBLIC "-//W3C//DTD SVG 1.1//EN" "http://www.w3.org/Graphics/SVG/1.1/DTD/svg11.dtd">
<svg xmlns="http://www.w3.org/2000/svg" xmlns:xlink="http://www.w3.org/1999/xlink" version="1.1" id="Capa_1" x="0px" y="0px" width="512px" height="512px" viewBox="0 0 31.923 31.922" style="enable-background:new 0 0 31.923 31.922;" xml:space="preserve">
<g>
	<g>
		<path d="M6.343,13.808h4.093c0.365,0,0.704-0.192,0.899-0.5l0.308-0.491l0.929,4.517c0.102,0.495,0.538,0.783,1.044,0.783    c0.004,0,0.008,0,0.012,0c0.51,0,0.946-0.306,1.036-0.81l1.093-5.979l0.983,5.652c0.082,0.474,0.471,0.83,0.949,0.875    c0.476,0.06,0.929-0.239,1.097-0.689l1.269-3.358h6.534c0.588,0,1.065-0.464,1.065-1.054c0-0.588-0.478-1.051-1.065-1.051h-7.271    c-0.442,0-0.84,0.284-0.996,0.699l-0.149,0.403l-1.345-7.715c-0.088-0.51-0.529-0.831-1.046-0.831c-0.001,0-0.002,0-0.004,0    c-0.515,0-0.956,0.315-1.048,0.825l-1.177,6.46l-0.348-1.708c-0.087-0.426-0.424-0.756-0.853-0.834    c-0.425-0.074-0.858,0.112-1.092,0.478l-1.409,2.223H6.343c-0.589,0-1.066,0.463-1.066,1.051    C5.277,13.344,5.754,13.808,6.343,13.808z" fill="#FFFFFF"/>
		<path d="M29.182,22.719h1.225c0.89,0,1.517-0.742,1.517-1.637V1.758c0-0.89-0.627-1.562-1.517-1.562H1.415    C0.527,0.196,0,0.869,0,1.758v19.325c0,0.895,0.527,1.637,1.415,1.637h1.327v0.021v0.81H2.731H1.844    c-0.911,0-1.649,0.738-1.649,1.649v5.237c0,0.713,0.578,1.291,1.29,1.291h28.951c0.713,0,1.291-0.578,1.291-1.291v-5.598    c0-0.713-0.578-1.289-1.291-1.289h-1.234H29.18v-0.811v-0.02H29.182z M3.035,5.548c0-1.144,0.928-2.071,2.071-2.071h21.466    c1.143,0,2.07,0.927,2.07,2.071v12.065c0,1.144-0.928,2.069-2.07,2.069H5.106c-1.143,0-2.071-0.926-2.071-2.069V5.548z     M15.912,28.084c0,0.361-0.293,0.655-0.655,0.655H3.789c-0.362,0-0.655-0.294-0.655-0.655v-0.794c0-0.362,0.293-0.655,0.655-0.655    h11.468c0.362,0,0.656,0.293,0.656,0.655L15.912,28.084L15.912,28.084z M22.473,28.084c0,0.361-0.293,0.655-0.654,0.655h-2.312    c-0.361,0-0.654-0.294-0.654-0.655v-0.794c0-0.362,0.293-0.655,0.654-0.655h2.312c0.361,0,0.656,0.293,0.656,0.655v0.794H22.473z     M28.74,28.084c0,0.361-0.293,0.655-0.655,0.655h-2.362c-0.361,0-0.654-0.294-0.654-0.655v-0.794c0-0.362,0.293-0.655,0.654-0.655    h2.361c0.361,0,0.656,0.293,0.656,0.655V28.084z M20.938,23.549h-9.921v-0.81v-0.021h9.939v0.021v0.81H20.938z" fill="#FFFFFF"/>
	</g>
</g>
<g>
</g>
<g>
</g>
<g>
</g>
<g>
</g>
<g>
</g>
<g>
</g>
<g>
</g>
<g>
</g>
<g>
</g>
<g>
</g>
<g>
</g>
<g>
</g>
<g>
</g>
<g>
</g>
<g>
</g>
</svg>
