<?xml version="1.0" encoding="iso-8859-1"?>
<!-- Generator: Adobe Illustrator 16.0.0, SVG Export Plug-In . SVG Version: 6.00 Build 0)  -->
<!DOCTYPE svg PUBLIC "-//W3C//DTD SVG 1.1//EN" "http://www.w3.org/Graphics/SVG/1.1/DTD/svg11.dtd">
<svg xmlns="http://www.w3.org/2000/svg" xmlns:xlink="http://www.w3.org/1999/xlink" version="1.1" id="Capa_1" x="0px" y="0px" width="512px" height="512px" viewBox="0 0 31.502 31.503" style="enable-background:new 0 0 31.502 31.503;" xml:space="preserve">
<g>
	<g>
		<circle cx="15.718" cy="7.27" r="7.27" fill="#FFFFFF"/>
		<path d="M22.711,16.255h-8.206c-0.321,0-0.606,0.206-0.707,0.513c-0.101,0.305,0.007,0.641,0.266,0.83    c2.614,1.92,5.962,4.516,5.962,4.516V22.3h1.978c2.004,0,3.635,1.621,3.635,3.625s-1.63,3.625-3.635,3.625h-2.021h-5.249H8.658    c-0.269,0-0.527-0.108-0.716-0.299s-0.294-0.45-0.291-0.718c0.021-2.17,0.074-7.311,0.125-10.428    c0.006-0.406-0.228-0.779-0.598-0.949c-0.37-0.17-0.805-0.105-1.11,0.166c-1.391,1.236-2.31,3.412-2.31,5.881v8.3h23.986v-8.3    C27.745,19.366,25.469,16.255,22.711,16.255z" fill="#FFFFFF"/>
		<path d="M24.428,25.924c0-1.337-1.087-2.417-2.424-2.417h-1.977v4.834h1.977C23.341,28.341,24.428,27.261,24.428,25.924z" fill="#FFFFFF"/>
	</g>
</g>
<g>
</g>
<g>
</g>
<g>
</g>
<g>
</g>
<g>
</g>
<g>
</g>
<g>
</g>
<g>
</g>
<g>
</g>
<g>
</g>
<g>
</g>
<g>
</g>
<g>
</g>
<g>
</g>
<g>
</g>
</svg>
