<?xml version="1.0" encoding="iso-8859-1"?>
<!-- Generator: Adobe Illustrator 19.0.0, SVG Export Plug-In . SVG Version: 6.00 Build 0)  -->
<svg xmlns="http://www.w3.org/2000/svg" xmlns:xlink="http://www.w3.org/1999/xlink" version="1.1" id="Layer_1" x="0px" y="0px" viewBox="0 0 500.004 500.004" style="enable-background:new 0 0 500.004 500.004;" xml:space="preserve" width="512px" height="512px">
<g style="opacity:0.5;enable-background:new    ;">
	<g>
		<path d="M187.5,99.61v14.024c0,4.292,3.376,9.416,7.672,9.416h35.296v33.328c0,4.296,3.412,9.64,7.704,9.64h23.752    c4.292,0,7.608-5.344,7.608-9.64V123.05h34.756c4.296,0,8.212-5.12,8.212-9.416V99.61H187.5z" fill="#FFFFFF"/>
	</g>
</g>
<g>
	<g>
		<path d="M304.288,83.986h-34.756V47.154c0-4.296-3.58-6.14-7.876-6.14h-23.484c-4.292,0-7.704,1.84-7.704,6.14v36.832h-35.296    c-4.296,0-7.672,1.816-7.672,6.112v23.532c0,4.296,3.376,9.416,7.672,9.416h35.296v33.328c0,4.296,3.412,9.64,7.704,9.64h23.752    c4.292,0,7.608-5.344,7.608-9.64v-33.328h34.756c4.296,0,8.212-5.12,8.212-9.416V90.178    C312.5,85.886,308.584,83.986,304.288,83.986z" fill="#FFFFFF"/>
	</g>
</g>
<g>
	<g>
		<path d="M488.288,435.55h-7.82V113.398c0-13.784-1.98-13.788-4.136-13.788H335.936v14.024c0,17.22-14.424,32.852-31.648,32.852    h-11.32v9.892c0,17.22-13.828,33.08-31.048,33.08h-23.752c-17.22,0-31.14-15.856-31.14-33.08v-9.892h-11.86    c-17.22,0-31.108-15.632-31.108-32.852V99.61H23.66c-2.152,0-4.132,0-4.132,13.788V435.55h-7.816C5.244,435.55,0,440.798,0,447.27    c0,6.464,5.244,11.72,11.712,11.72h476.58c6.468,0,11.712-5.252,11.712-11.72C500,440.798,494.756,435.55,488.288,435.55z     M74.22,214.73c0-2.156,2.352-1.836,4.508-1.836h85.636c2.156,0,3.604-0.316,3.604,1.836v37.224H74.22V214.73z M167.972,390.642    c0,2.156-1.448,5.844-3.604,5.844h-85.64c-2.156,0-4.508-3.688-4.508-5.844c0,0,0-115.248,0-115.248h93.752V390.642z     M203.124,214.73c0-2.156,1.94-1.836,4.096-1.836h85.64c2.148,0,4.012-0.316,4.012,1.836v37.224h-93.748V214.73z M296.876,390.642    c0,2.156-1.864,5.844-4.012,5.844h-85.64c-2.156,0-4.096-3.688-4.096-5.844V275.394h93.748V390.642z M332.032,214.73    c0-2.156,1.536-1.836,3.684-1.836h85.64c2.156,0,4.424-0.316,4.424,1.836v37.224h-93.748V214.73z M425.784,390.642    c0,2.156-2.268,5.844-4.424,5.844h-85.64c-2.148,0-3.684-3.688-3.684-5.844V275.394h93.748V390.642z" fill="#FFFFFF"/>
	</g>
</g>
<g>
</g>
<g>
</g>
<g>
</g>
<g>
</g>
<g>
</g>
<g>
</g>
<g>
</g>
<g>
</g>
<g>
</g>
<g>
</g>
<g>
</g>
<g>
</g>
<g>
</g>
<g>
</g>
<g>
</g>
</svg>
