<?xml version="1.0" encoding="iso-8859-1"?>
<!-- Generator: Adobe Illustrator 19.0.0, SVG Export Plug-In . SVG Version: 6.00 Build 0)  -->
<svg xmlns="http://www.w3.org/2000/svg" xmlns:xlink="http://www.w3.org/1999/xlink" version="1.1" id="Layer_1" x="0px" y="0px" viewBox="0 0 500 500" style="enable-background:new 0 0 500 500;" xml:space="preserve" width="512px" height="512px">
<g>
	<g>
		<path d="M337.506,245.936h-52.324V192.96c0-7.448-7.484-13.476-15.408-13.476h-41.092c-7.924,0-13.86,6.024-13.86,13.476v52.976    h-53.64c-7.304,0-12.812,6.916-12.812,15.14v40.748c0,7.924,5.38,14.468,12.812,14.468h53.64v52.784    c0,7.448,5.932,13.664,13.86,13.664h41.092c7.92,0,15.408-6.216,15.408-13.664v-52.784h52.324c7.424,0,14.12-6.544,14.12-14.468    V260.28C351.626,252.352,344.93,245.936,337.506,245.936z" fill="#FFFFFF"/>
	</g>
</g>
<g>
	<g>
		<path d="M425.238,46.592h-75.4c-3.444-15.636-17.532-27.36-34.36-27.36h-37.376C273.338,7.504,262.122,0,249.346,0    S225.35,7.504,220.59,19.232h-37.852c-16.824,0-30.912,11.728-34.356,27.36H73.454c-19.4,0-34.524,15.952-34.524,35.348v382.404    c0,19.4,15.124,35.656,34.524,35.656h351.78c19.4,0,35.836-16.256,35.836-35.656V81.94    C461.074,62.544,444.634,46.592,425.238,46.592z M249.346,15.324c8.62,0,15.632,7.012,15.632,15.636s-7.012,15.636-15.632,15.636    c-8.624,0-15.636-7.012-15.636-15.636S240.722,15.324,249.346,15.324z M81.926,464.824V73.952h66.448v12.384    c0,2.164,0.932,3.248,3.092,3.248h195.28c2.164,0,4.88-1.088,4.88-3.248V73.952h66.448v390.872H81.926z" fill="#FFFFFF"/>
	</g>
</g>
<g>
</g>
<g>
</g>
<g>
</g>
<g>
</g>
<g>
</g>
<g>
</g>
<g>
</g>
<g>
</g>
<g>
</g>
<g>
</g>
<g>
</g>
<g>
</g>
<g>
</g>
<g>
</g>
<g>
</g>
</svg>
